<svg xmlns="http://www.w3.org/2000/svg" xmlns:xlink="http://www.w3.org/1999/xlink" width="1000" zoomAndPan="magnify" viewBox="0 0 750 202.499994" height="270" preserveAspectRatio="xMidYMid meet" version="1.0"><defs><g/></defs><g fill="#ffac1c" fill-opacity="1"><g transform="translate(0.923656, 144.676122)"><g><path d="M 50.234375 -13.125 C 59.472656 -13.125 67.84375 -13.6875 75.34375 -14.8125 C 82.84375 -15.9375 88.15625 -16.8125 91.28125 -17.4375 C 90.90625 -13.1875 90.5625 -9.84375 90.25 -7.40625 C 89.9375 -4.96875 89.78125 -3.75 89.78125 -3.75 C 86.78125 -2.625 82.875 -1.625 78.0625 -0.75 C 73.25 0.125 68.34375 0.78125 63.34375 1.21875 C 58.351562 1.65625 53.984375 1.875 50.234375 1.875 C 46.609375 1.875 42.234375 1.65625 37.109375 1.21875 C 31.984375 0.78125 27.015625 0.125 22.203125 -0.75 C 17.398438 -1.625 13.5 -2.625 10.5 -3.75 C 10.5 -3.75 10.25 -6.273438 9.75 -11.328125 C 9.25 -16.390625 8.71875 -23.328125 8.15625 -32.140625 C 7.59375 -40.953125 7.3125 -50.914062 7.3125 -62.03125 C 7.3125 -73.15625 7.59375 -83.117188 8.15625 -91.921875 C 8.71875 -100.734375 9.25 -107.671875 9.75 -112.734375 C 10.25 -117.796875 10.5 -120.328125 10.5 -120.328125 C 13.5 -121.578125 17.398438 -122.609375 22.203125 -123.421875 C 27.015625 -124.234375 31.984375 -124.859375 37.109375 -125.296875 C 42.234375 -125.734375 46.609375 -125.953125 50.234375 -125.953125 C 53.984375 -125.953125 58.351562 -125.734375 63.34375 -125.296875 C 68.34375 -124.859375 73.25 -124.234375 78.0625 -123.421875 C 82.875 -122.609375 86.78125 -121.578125 89.78125 -120.328125 C 89.78125 -120.328125 89.9375 -119.109375 90.25 -116.671875 C 90.5625 -114.234375 90.90625 -110.828125 91.28125 -106.453125 C 89.40625 -106.828125 86.375 -107.390625 82.1875 -108.140625 C 78 -108.890625 73.125 -109.546875 67.5625 -110.109375 C 62 -110.671875 56.222656 -110.953125 50.234375 -110.953125 C 46.859375 -110.953125 43.296875 -110.796875 39.546875 -110.484375 C 35.796875 -110.171875 32.609375 -109.828125 29.984375 -109.453125 C 27.359375 -109.078125 26.046875 -108.890625 26.046875 -108.890625 C 26.046875 -108.890625 25.890625 -106.734375 25.578125 -102.421875 C 25.265625 -98.109375 24.953125 -92.390625 24.640625 -85.265625 C 24.328125 -78.148438 24.171875 -70.40625 24.171875 -62.03125 C 24.171875 -53.664062 24.328125 -45.921875 24.640625 -38.796875 C 24.953125 -31.671875 25.265625 -25.953125 25.578125 -21.640625 C 25.890625 -17.335938 26.046875 -15.1875 26.046875 -15.1875 C 26.046875 -15.1875 27.359375 -15.03125 29.984375 -14.71875 C 32.609375 -14.40625 35.796875 -14.0625 39.546875 -13.6875 C 43.296875 -13.3125 46.859375 -13.125 50.234375 -13.125 Z M 50.234375 -13.125 "/></g></g></g><g fill="#ffac1c" fill-opacity="1"><g transform="translate(96.690391, 144.676122)"><g><path d="M 71.96875 -81.34375 C 72.96875 -75.46875 73.71875 -69.28125 74.21875 -62.78125 C 74.71875 -56.289062 74.96875 -49.546875 74.96875 -42.546875 L 74.96875 0 L 58.09375 0 L 58.09375 -42.546875 C 58.09375 -44.921875 58.03125 -47.640625 57.90625 -50.703125 C 57.78125 -53.765625 57.59375 -56.726562 57.34375 -59.59375 C 57.09375 -62.46875 56.90625 -64.875 56.78125 -66.8125 C 56.65625 -68.75 56.59375 -69.71875 56.59375 -69.71875 C 56.59375 -69.71875 55 -70.0625 51.8125 -70.75 C 48.632812 -71.4375 45.234375 -71.78125 41.609375 -71.78125 C 37.984375 -71.78125 34.671875 -71.53125 31.671875 -71.03125 C 28.671875 -70.53125 26.484375 -70.09375 25.109375 -69.71875 L 25.109375 0 L 8.0625 0 L 8.0625 -124.453125 C 14.3125 -123.453125 19.992188 -121.953125 25.109375 -119.953125 L 25.109375 -85.28125 C 27.734375 -85.78125 30.421875 -86.15625 33.171875 -86.40625 C 35.921875 -86.65625 38.734375 -86.78125 41.609375 -86.78125 C 47.109375 -86.78125 52.414062 -86.3125 57.53125 -85.375 C 62.65625 -84.4375 67.46875 -83.09375 71.96875 -81.34375 Z M 71.96875 -81.34375 "/></g></g></g><g fill="#ffac1c" fill-opacity="1"><g transform="translate(179.713223, 144.676122)"><g><path d="M 25.484375 -122.203125 C 25.859375 -120.953125 26.109375 -119.578125 26.234375 -118.078125 C 26.359375 -116.578125 26.421875 -115.015625 26.421875 -113.390625 C 26.421875 -111.765625 26.359375 -110.203125 26.234375 -108.703125 C 26.109375 -107.203125 25.859375 -105.765625 25.484375 -104.390625 C 24.234375 -104.015625 22.859375 -103.703125 21.359375 -103.453125 C 19.859375 -103.203125 18.238281 -103.078125 16.5 -103.078125 C 14.875 -103.078125 13.3125 -103.203125 11.8125 -103.453125 C 10.3125 -103.703125 8.875 -104.015625 7.5 -104.390625 C 7.25 -105.765625 7.03125 -107.203125 6.84375 -108.703125 C 6.65625 -110.203125 6.5625 -111.765625 6.5625 -113.390625 C 6.5625 -115.015625 6.65625 -116.578125 6.84375 -118.078125 C 7.03125 -119.578125 7.25 -120.953125 7.5 -122.203125 C 8.875 -122.703125 10.3125 -123.046875 11.8125 -123.234375 C 13.3125 -123.421875 14.875 -123.515625 16.5 -123.515625 C 19.988281 -123.515625 22.984375 -123.078125 25.484375 -122.203125 Z M 8.0625 0 L 8.0625 -86.78125 C 14.0625 -85.90625 19.679688 -84.40625 24.921875 -82.28125 L 24.921875 0 Z M 8.0625 0 "/></g></g></g><g fill="#ffac1c" fill-opacity="1"><g transform="translate(212.510048, 144.676122)"><g><path d="M 48.921875 -41.046875 L 60.90625 -83.96875 L 78.71875 -83.96875 L 65.21875 -36.359375 C 63.59375 -30.484375 61.6875 -24.515625 59.5 -18.453125 C 57.3125 -12.398438 55.410156 -7.5625 53.796875 -3.9375 L 28.671875 52.296875 C 25.921875 52.046875 23.078125 51.703125 20.140625 51.265625 C 17.210938 50.828125 14.25 50.171875 11.25 49.296875 L 33.171875 0.375 C 32.671875 0.375 32.140625 0.34375 31.578125 0.28125 C 31.015625 0.21875 30.484375 0.1875 29.984375 0.1875 C 27.359375 -5.1875 24.921875 -10.929688 22.671875 -17.046875 C 20.421875 -23.171875 18.363281 -29.609375 16.5 -36.359375 L 3.1875 -83.96875 L 20.796875 -83.96875 L 32.796875 -41.046875 C 34.046875 -36.671875 35.390625 -32.421875 36.828125 -28.296875 C 38.265625 -24.171875 39.609375 -20.363281 40.859375 -16.875 C 42.234375 -20.363281 43.609375 -24.171875 44.984375 -28.296875 C 46.359375 -32.421875 47.671875 -36.671875 48.921875 -41.046875 Z M 48.921875 -41.046875 "/></g></g></g><g fill="#ffac1c" fill-opacity="1"><g transform="translate(291.59715, 144.676122)"><g><path d="M 71.21875 -81.34375 C 72.21875 -75.46875 72.96875 -69.28125 73.46875 -62.78125 C 73.96875 -56.289062 74.21875 -49.546875 74.21875 -42.546875 C 74.21875 -35.546875 73.96875 -28.796875 73.46875 -22.296875 C 72.96875 -15.804688 72.21875 -9.625 71.21875 -3.75 C 66.71875 -2 61.90625 -0.625 56.78125 0.375 C 51.664062 1.375 46.359375 1.875 40.859375 1.875 C 35.359375 1.875 30.015625 1.375 24.828125 0.375 C 19.648438 -0.625 14.8125 -2 10.3125 -3.75 C 10.3125 -3.75 9.8125 -5.875 8.8125 -10.125 C 7.8125 -14.375 7.3125 -19.929688 7.3125 -26.796875 C 7.3125 -33.796875 7.8125 -39.421875 8.8125 -43.671875 C 9.8125 -47.921875 10.3125 -50.046875 10.3125 -50.046875 C 14.8125 -51.796875 19.648438 -53.171875 24.828125 -54.171875 C 30.015625 -55.171875 35.359375 -55.671875 40.859375 -55.671875 C 43.609375 -55.671875 46.328125 -55.546875 49.015625 -55.296875 C 51.703125 -55.046875 54.289062 -54.671875 56.78125 -54.171875 C 56.65625 -58.160156 56.46875 -61.75 56.21875 -64.9375 C 55.976562 -68.125 55.859375 -69.71875 55.859375 -69.71875 C 55.859375 -69.71875 54.265625 -70.0625 51.078125 -70.75 C 47.890625 -71.4375 44.484375 -71.78125 40.859375 -71.78125 C 33.734375 -71.78125 27.234375 -71.1875 21.359375 -70 C 15.492188 -68.8125 11.1875 -67.78125 8.4375 -66.90625 C 8.6875 -69.40625 8.96875 -71.84375 9.28125 -74.21875 C 9.59375 -76.59375 9.9375 -78.96875 10.3125 -81.34375 C 14.8125 -83.09375 19.648438 -84.4375 24.828125 -85.375 C 30.015625 -86.3125 35.359375 -86.78125 40.859375 -86.78125 C 46.359375 -86.78125 51.664062 -86.3125 56.78125 -85.375 C 61.90625 -84.4375 66.71875 -83.09375 71.21875 -81.34375 Z M 40.859375 -13.125 C 44.859375 -13.125 48.359375 -13.46875 51.359375 -14.15625 C 54.359375 -14.84375 55.859375 -15.1875 55.859375 -15.1875 C 55.859375 -15.1875 55.945312 -16.460938 56.125 -19.015625 C 56.3125 -21.578125 56.53125 -24.671875 56.78125 -28.296875 C 57.03125 -31.921875 57.15625 -35.359375 57.15625 -38.609375 C 55.414062 -39.109375 53.078125 -39.578125 50.140625 -40.015625 C 47.203125 -40.453125 44.109375 -40.671875 40.859375 -40.671875 C 37.234375 -40.671875 33.765625 -40.328125 30.453125 -39.640625 C 27.140625 -38.953125 25.484375 -38.609375 25.484375 -38.609375 C 25.484375 -38.609375 25.296875 -37.515625 24.921875 -35.328125 C 24.546875 -33.140625 24.359375 -30.296875 24.359375 -26.796875 C 24.359375 -23.421875 24.546875 -20.640625 24.921875 -18.453125 C 25.296875 -16.273438 25.484375 -15.1875 25.484375 -15.1875 C 25.484375 -15.1875 27.140625 -14.84375 30.453125 -14.15625 C 33.765625 -13.46875 37.234375 -13.125 40.859375 -13.125 Z M 40.859375 -13.125 "/></g></g></g><g fill="#ffac1c" fill-opacity="1"><g transform="translate(372.933279, 144.676122)"><g><path d="M 50.234375 -13.125 C 59.472656 -13.125 67.84375 -13.6875 75.34375 -14.8125 C 82.84375 -15.9375 88.15625 -16.8125 91.28125 -17.4375 C 90.90625 -13.1875 90.5625 -9.84375 90.25 -7.40625 C 89.9375 -4.96875 89.78125 -3.75 89.78125 -3.75 C 86.78125 -2.625 82.875 -1.625 78.0625 -0.75 C 73.25 0.125 68.34375 0.78125 63.34375 1.21875 C 58.351562 1.65625 53.984375 1.875 50.234375 1.875 C 46.609375 1.875 42.234375 1.65625 37.109375 1.21875 C 31.984375 0.78125 27.015625 0.125 22.203125 -0.75 C 17.398438 -1.625 13.5 -2.625 10.5 -3.75 C 10.5 -3.75 10.25 -6.273438 9.75 -11.328125 C 9.25 -16.390625 8.71875 -23.328125 8.15625 -32.140625 C 7.59375 -40.953125 7.3125 -50.914062 7.3125 -62.03125 C 7.3125 -73.15625 7.59375 -83.117188 8.15625 -91.921875 C 8.71875 -100.734375 9.25 -107.671875 9.75 -112.734375 C 10.25 -117.796875 10.5 -120.328125 10.5 -120.328125 C 13.5 -121.578125 17.398438 -122.609375 22.203125 -123.421875 C 27.015625 -124.234375 31.984375 -124.859375 37.109375 -125.296875 C 42.234375 -125.734375 46.609375 -125.953125 50.234375 -125.953125 C 53.984375 -125.953125 58.351562 -125.734375 63.34375 -125.296875 C 68.34375 -124.859375 73.25 -124.234375 78.0625 -123.421875 C 82.875 -122.609375 86.78125 -121.578125 89.78125 -120.328125 C 89.78125 -120.328125 89.9375 -119.109375 90.25 -116.671875 C 90.5625 -114.234375 90.90625 -110.828125 91.28125 -106.453125 C 89.40625 -106.828125 86.375 -107.390625 82.1875 -108.140625 C 78 -108.890625 73.125 -109.546875 67.5625 -110.109375 C 62 -110.671875 56.222656 -110.953125 50.234375 -110.953125 C 46.859375 -110.953125 43.296875 -110.796875 39.546875 -110.484375 C 35.796875 -110.171875 32.609375 -109.828125 29.984375 -109.453125 C 27.359375 -109.078125 26.046875 -108.890625 26.046875 -108.890625 C 26.046875 -108.890625 25.890625 -106.734375 25.578125 -102.421875 C 25.265625 -98.109375 24.953125 -92.390625 24.640625 -85.265625 C 24.328125 -78.148438 24.171875 -70.40625 24.171875 -62.03125 C 24.171875 -53.664062 24.328125 -45.921875 24.640625 -38.796875 C 24.953125 -31.671875 25.265625 -25.953125 25.578125 -21.640625 C 25.890625 -17.335938 26.046875 -15.1875 26.046875 -15.1875 C 26.046875 -15.1875 27.359375 -15.03125 29.984375 -14.71875 C 32.609375 -14.40625 35.796875 -14.0625 39.546875 -13.6875 C 43.296875 -13.3125 46.859375 -13.125 50.234375 -13.125 Z M 50.234375 -13.125 "/></g></g></g><g fill="#ffac1c" fill-opacity="1"><g transform="translate(468.700014, 144.676122)"><g><path d="M 71.96875 -81.34375 C 72.96875 -75.46875 73.71875 -69.28125 74.21875 -62.78125 C 74.71875 -56.289062 74.96875 -49.546875 74.96875 -42.546875 L 74.96875 0 L 58.09375 0 L 58.09375 -42.546875 C 58.09375 -44.921875 58.03125 -47.640625 57.90625 -50.703125 C 57.78125 -53.765625 57.59375 -56.726562 57.34375 -59.59375 C 57.09375 -62.46875 56.90625 -64.875 56.78125 -66.8125 C 56.65625 -68.75 56.59375 -69.71875 56.59375 -69.71875 C 56.59375 -69.71875 55 -70.0625 51.8125 -70.75 C 48.632812 -71.4375 45.234375 -71.78125 41.609375 -71.78125 C 37.984375 -71.78125 34.671875 -71.53125 31.671875 -71.03125 C 28.671875 -70.53125 26.484375 -70.09375 25.109375 -69.71875 L 25.109375 0 L 8.0625 0 L 8.0625 -124.453125 C 14.3125 -123.453125 19.992188 -121.953125 25.109375 -119.953125 L 25.109375 -85.28125 C 27.734375 -85.78125 30.421875 -86.15625 33.171875 -86.40625 C 35.921875 -86.65625 38.734375 -86.78125 41.609375 -86.78125 C 47.109375 -86.78125 52.414062 -86.3125 57.53125 -85.375 C 62.65625 -84.4375 67.46875 -83.09375 71.96875 -81.34375 Z M 71.96875 -81.34375 "/></g></g></g><g fill="#ffac1c" fill-opacity="1"><g transform="translate(551.722846, 144.676122)"><g><path d="M 71.21875 -81.34375 C 72.21875 -75.46875 72.96875 -69.28125 73.46875 -62.78125 C 73.96875 -56.289062 74.21875 -49.546875 74.21875 -42.546875 C 74.21875 -35.546875 73.96875 -28.796875 73.46875 -22.296875 C 72.96875 -15.804688 72.21875 -9.625 71.21875 -3.75 C 66.71875 -2 61.90625 -0.625 56.78125 0.375 C 51.664062 1.375 46.359375 1.875 40.859375 1.875 C 35.359375 1.875 30.015625 1.375 24.828125 0.375 C 19.648438 -0.625 14.8125 -2 10.3125 -3.75 C 10.3125 -3.75 9.8125 -5.875 8.8125 -10.125 C 7.8125 -14.375 7.3125 -19.929688 7.3125 -26.796875 C 7.3125 -33.796875 7.8125 -39.421875 8.8125 -43.671875 C 9.8125 -47.921875 10.3125 -50.046875 10.3125 -50.046875 C 14.8125 -51.796875 19.648438 -53.171875 24.828125 -54.171875 C 30.015625 -55.171875 35.359375 -55.671875 40.859375 -55.671875 C 43.609375 -55.671875 46.328125 -55.546875 49.015625 -55.296875 C 51.703125 -55.046875 54.289062 -54.671875 56.78125 -54.171875 C 56.65625 -58.160156 56.46875 -61.75 56.21875 -64.9375 C 55.976562 -68.125 55.859375 -69.71875 55.859375 -69.71875 C 55.859375 -69.71875 54.265625 -70.0625 51.078125 -70.75 C 47.890625 -71.4375 44.484375 -71.78125 40.859375 -71.78125 C 33.734375 -71.78125 27.234375 -71.1875 21.359375 -70 C 15.492188 -68.8125 11.1875 -67.78125 8.4375 -66.90625 C 8.6875 -69.40625 8.96875 -71.84375 9.28125 -74.21875 C 9.59375 -76.59375 9.9375 -78.96875 10.3125 -81.34375 C 14.8125 -83.09375 19.648438 -84.4375 24.828125 -85.375 C 30.015625 -86.3125 35.359375 -86.78125 40.859375 -86.78125 C 46.359375 -86.78125 51.664062 -86.3125 56.78125 -85.375 C 61.90625 -84.4375 66.71875 -83.09375 71.21875 -81.34375 Z M 40.859375 -13.125 C 44.859375 -13.125 48.359375 -13.46875 51.359375 -14.15625 C 54.359375 -14.84375 55.859375 -15.1875 55.859375 -15.1875 C 55.859375 -15.1875 55.945312 -16.460938 56.125 -19.015625 C 56.3125 -21.578125 56.53125 -24.671875 56.78125 -28.296875 C 57.03125 -31.921875 57.15625 -35.359375 57.15625 -38.609375 C 55.414062 -39.109375 53.078125 -39.578125 50.140625 -40.015625 C 47.203125 -40.453125 44.109375 -40.671875 40.859375 -40.671875 C 37.234375 -40.671875 33.765625 -40.328125 30.453125 -39.640625 C 27.140625 -38.953125 25.484375 -38.609375 25.484375 -38.609375 C 25.484375 -38.609375 25.296875 -37.515625 24.921875 -35.328125 C 24.546875 -33.140625 24.359375 -30.296875 24.359375 -26.796875 C 24.359375 -23.421875 24.546875 -20.640625 24.921875 -18.453125 C 25.296875 -16.273438 25.484375 -15.1875 25.484375 -15.1875 C 25.484375 -15.1875 27.140625 -14.84375 30.453125 -14.15625 C 33.765625 -13.46875 37.234375 -13.125 40.859375 -13.125 Z M 40.859375 -13.125 "/></g></g></g><g fill="#ffac1c" fill-opacity="1"><g transform="translate(633.059004, 144.676122)"><g><path d="M 25.484375 -122.203125 C 25.859375 -120.953125 26.109375 -119.578125 26.234375 -118.078125 C 26.359375 -116.578125 26.421875 -115.015625 26.421875 -113.390625 C 26.421875 -111.765625 26.359375 -110.203125 26.234375 -108.703125 C 26.109375 -107.203125 25.859375 -105.765625 25.484375 -104.390625 C 24.234375 -104.015625 22.859375 -103.703125 21.359375 -103.453125 C 19.859375 -103.203125 18.238281 -103.078125 16.5 -103.078125 C 14.875 -103.078125 13.3125 -103.203125 11.8125 -103.453125 C 10.3125 -103.703125 8.875 -104.015625 7.5 -104.390625 C 7.25 -105.765625 7.03125 -107.203125 6.84375 -108.703125 C 6.65625 -110.203125 6.5625 -111.765625 6.5625 -113.390625 C 6.5625 -115.015625 6.65625 -116.578125 6.84375 -118.078125 C 7.03125 -119.578125 7.25 -120.953125 7.5 -122.203125 C 8.875 -122.703125 10.3125 -123.046875 11.8125 -123.234375 C 13.3125 -123.421875 14.875 -123.515625 16.5 -123.515625 C 19.988281 -123.515625 22.984375 -123.078125 25.484375 -122.203125 Z M 8.0625 0 L 8.0625 -86.78125 C 14.0625 -85.90625 19.679688 -84.40625 24.921875 -82.28125 L 24.921875 0 Z M 8.0625 0 "/></g></g></g><g fill="#ffac1c" fill-opacity="1"><g transform="translate(665.8558, 144.676122)"><g><path d="M 25.109375 0 L 8.0625 0 L 8.0625 -42.546875 C 8.0625 -49.546875 8.3125 -56.289062 8.8125 -62.78125 C 9.3125 -69.28125 10.0625 -75.46875 11.0625 -81.34375 C 15.5625 -83.09375 20.398438 -84.4375 25.578125 -85.375 C 30.765625 -86.3125 36.109375 -86.78125 41.609375 -86.78125 C 47.109375 -86.78125 52.414062 -86.3125 57.53125 -85.375 C 62.65625 -84.4375 67.46875 -83.09375 71.96875 -81.34375 C 72.96875 -75.46875 73.71875 -69.28125 74.21875 -62.78125 C 74.71875 -56.289062 74.96875 -49.546875 74.96875 -42.546875 L 74.96875 0 L 57.90625 0 L 57.90625 -42.546875 C 57.90625 -44.921875 57.84375 -47.640625 57.71875 -50.703125 C 57.59375 -53.765625 57.4375 -56.726562 57.25 -59.59375 C 57.0625 -62.46875 56.90625 -64.875 56.78125 -66.8125 C 56.65625 -68.75 56.59375 -69.71875 56.59375 -69.71875 C 56.59375 -69.71875 55 -70.0625 51.8125 -70.75 C 48.632812 -71.4375 45.234375 -71.78125 41.609375 -71.78125 C 37.984375 -71.78125 34.578125 -71.4375 31.390625 -70.75 C 28.203125 -70.0625 26.609375 -69.71875 26.609375 -69.71875 C 26.609375 -69.71875 26.546875 -68.75 26.421875 -66.8125 C 26.296875 -64.875 26.109375 -62.46875 25.859375 -59.59375 C 25.609375 -56.726562 25.421875 -53.765625 25.296875 -50.703125 C 25.171875 -47.640625 25.109375 -44.921875 25.109375 -42.546875 Z M 25.109375 0 "/></g></g></g></svg>