<svg xmlns="http://www.w3.org/2000/svg" xmlns:xlink="http://www.w3.org/1999/xlink" width="1000" zoomAndPan="magnify" viewBox="0 0 750 592.499982" height="790" preserveAspectRatio="xMidYMid meet" version="1.0"><path fill="#355e3b" d="M 732.035156 13.945312 C 732.195312 13.945312 732.351562 13.945312 732.515625 13.945312 C 732.667969 15.515625 732.816406 17.085938 732.964844 18.65625 C 733.007812 19.082031 733.050781 19.507812 733.09375 19.949219 C 734.074219 30.46875 734.070312 40.996094 734.074219 51.554688 C 734.074219 52.175781 734.074219 52.175781 734.078125 52.8125 C 734.082031 65.753906 733.882812 78.621094 732.625 91.511719 C 732.515625 92.640625 732.410156 93.769531 732.304688 94.898438 C 728.574219 134.628906 718.914062 173.609375 673.019531 253.375 C 672.707031 253.746094 672.707031 253.746094 672.390625 254.128906 C 666.527344 261.132812 660.371094 268.101562 653.429688 274.054688 C 652.238281 275.09375 651.085938 276.171875 649.925781 277.246094 C 647.429688 279.523438 644.820312 281.609375 642.148438 283.675781 C 640.96875 284.589844 639.804688 285.515625 638.648438 286.453125 C 634.253906 290.035156 629.714844 293.355469 625.039062 296.558594 C 624.742188 296.761719 624.445312 296.964844 624.136719 297.175781 C 611.269531 305.988281 597.679688 313.53125 583.773438 320.550781 C 583.269531 320.804688 582.769531 321.058594 582.25 321.324219 C 545.878906 339.683594 506.054688 350.140625 447.285156 352.429688 C 422.78125 353.003906 396.191406 353.863281 377.453125 371.890625 C 376.816406 372.433594 376.175781 372.972656 375.53125 373.507812 C 354.183594 392.25 346.707031 423.867188 344.878906 450.992188 C 344.804688 452.191406 344.734375 453.386719 344.671875 454.585938 C 344.511719 457.515625 344.242188 460.339844 343.765625 463.234375 C 343 468.511719 343.882812 473.761719 344.523438 479.007812 C 344.703125 480.546875 344.878906 482.082031 345.058594 483.621094 C 345.167969 484.570312 345.277344 485.519531 345.394531 486.464844 C 345.445312 486.894531 345.496094 487.320312 345.546875 487.757812 C 345.617188 488.320312 345.617188 488.320312 345.6875 488.890625 C 345.777344 489.871094 345.785156 490.859375 345.785156 491.84375 C 347.683594 491.6875 349.585938 491.527344 351.542969 491.363281 C 351.617188 490.871094 351.695312 490.375 351.773438 489.867188 C 354.046875 475.707031 359.507812 463.097656 369.296875 452.5 C 369.519531 452.253906 369.742188 452.011719 369.972656 451.757812 C 378.53125 442.492188 389.535156 436.261719 401.652344 432.945312 C 402.167969 432.804688 402.167969 432.804688 402.691406 432.65625 C 408.957031 431.042969 415.460938 430.75 421.898438 430.535156 C 422.664062 430.507812 423.429688 430.476562 424.191406 430.449219 C 426.246094 430.371094 428.296875 430.300781 430.347656 430.230469 C 432.511719 430.152344 434.671875 430.074219 436.835938 429.996094 C 440.464844 429.863281 444.09375 429.734375 447.722656 429.605469 C 451.898438 429.457031 456.074219 429.308594 460.253906 429.15625 C 464.726562 428.992188 469.203125 428.832031 473.675781 428.671875 C 474.953125 428.625 476.230469 428.578125 477.507812 428.53125 C 479.527344 428.460938 481.542969 428.386719 483.5625 428.316406 C 484.296875 428.292969 485.03125 428.265625 485.765625 428.238281 C 498.757812 427.765625 498.757812 427.765625 504.304688 428.386719 C 504.683594 428.429688 505.0625 428.472656 505.457031 428.515625 C 520.757812 430.363281 534.492188 437.351562 545.386719 448.179688 C 545.613281 448.40625 545.839844 448.628906 546.070312 448.859375 C 562.546875 465.433594 565.015625 486.851562 565.539062 509.117188 C 565.554688 509.578125 565.566406 510.039062 565.582031 510.511719 C 566.160156 530.441406 559.171875 548.039062 545.660156 562.585938 C 543.625 564.617188 541.4375 566.398438 539.148438 568.136719 C 538.589844 568.5625 538.589844 568.5625 538.019531 568.996094 C 532.984375 572.675781 527.550781 575.597656 521.757812 577.882812 C 521.386719 578.03125 521.015625 578.183594 520.636719 578.335938 C 510.6875 582.082031 500.148438 582.027344 489.679688 582.347656 C 487.417969 582.414062 485.15625 582.496094 482.894531 582.574219 C 479.09375 582.703125 475.296875 582.824219 471.5 582.945312 C 466.664062 583.097656 461.828125 583.257812 456.992188 583.421875 C 452.785156 583.566406 448.582031 583.703125 444.378906 583.84375 C 443.050781 583.886719 441.722656 583.929688 440.390625 583.972656 C 424.671875 584.496094 424.671875 584.496094 416.886719 584.535156 C 416.167969 584.542969 416.167969 584.542969 415.433594 584.546875 C 410.792969 584.546875 406.390625 583.742188 401.921875 582.53125 C 401.605469 582.445312 401.289062 582.359375 400.964844 582.273438 C 393.152344 580.105469 385.800781 576.398438 379.371094 571.492188 C 378.976562 571.207031 378.582031 570.917969 378.175781 570.621094 C 365.75 561.203125 357.609375 548.019531 353.898438 532.972656 C 353.808594 532.617188 353.722656 532.261719 353.628906 531.894531 C 353.414062 531.019531 353.195312 530.144531 352.980469 529.269531 C 337.96875 529.515625 322.964844 529.902344 307.957031 530.320312 C 307.488281 530.335938 307.023438 530.347656 306.539062 530.359375 C 299.746094 530.550781 292.953125 530.742188 286.160156 530.9375 C 279.246094 531.132812 272.335938 531.328125 265.425781 531.523438 C 262.667969 531.601562 259.910156 531.679688 257.148438 531.757812 C 255.441406 531.804688 253.734375 531.855469 252.027344 531.902344 C 251.238281 531.925781 250.453125 531.945312 249.667969 531.96875 C 234.855469 532.398438 234.855469 532.398438 232.1875 529.933594 C 229.683594 527.128906 229.023438 524.898438 228.890625 521.144531 C 228.863281 520.496094 228.863281 520.496094 228.835938 519.835938 C 228.785156 518.34375 228.746094 516.847656 228.707031 515.355469 C 228.691406 514.769531 228.675781 514.179688 228.660156 513.574219 C 228.613281 511.710938 228.582031 509.84375 228.558594 507.976562 C 228.542969 507.382812 228.53125 506.785156 228.515625 506.171875 C 228.496094 502.875 228.601562 500.734375 230.628906 498.082031 C 234.332031 494.378906 238.296875 494.558594 243.257812 494.445312 C 243.902344 494.429688 244.546875 494.410156 245.195312 494.390625 C 246.578125 494.351562 247.964844 494.316406 249.351562 494.28125 C 251.546875 494.226562 253.738281 494.167969 255.933594 494.105469 C 259.40625 494.007812 262.882812 493.917969 266.355469 493.828125 C 272.570312 493.664062 278.78125 493.496094 284.996094 493.328125 C 287.175781 493.265625 289.351562 493.210938 291.53125 493.152344 C 292.890625 493.117188 294.25 493.082031 295.609375 493.042969 C 296.53125 493.019531 297.453125 492.996094 298.378906 492.976562 C 301.414062 492.890625 304.386719 492.714844 307.398438 492.324219 C 303.207031 450.257812 297.148438 405.414062 260.855469 349.820312 C 260.0625 349.171875 259.261719 348.53125 258.457031 347.898438 C 258.457031 348.167969 258.457031 348.441406 258.453125 348.71875 C 258.425781 355.328125 258.390625 361.9375 258.34375 368.546875 C 258.324219 371.742188 258.304688 374.941406 258.292969 378.136719 C 258.277344 381.226562 258.257812 384.316406 258.234375 387.402344 C 258.226562 388.578125 258.222656 389.75 258.21875 390.925781 C 258.183594 404.03125 256.183594 415.382812 246.617188 425.125 C 244.140625 427.5 241.277344 429.222656 238.304688 430.90625 C 237.960938 431.113281 237.617188 431.316406 237.261719 431.53125 C 232.488281 434.183594 226.65625 435.28125 221.246094 435.289062 C 220.320312 435.292969 220.320312 435.292969 219.378906 435.292969 C 218.703125 435.292969 218.023438 435.292969 217.347656 435.292969 C 216.621094 435.292969 215.898438 435.296875 215.171875 435.296875 C 213.1875 435.300781 211.199219 435.300781 209.210938 435.304688 C 207.066406 435.304688 204.921875 435.308594 202.777344 435.308594 C 198.089844 435.316406 193.402344 435.320312 188.710938 435.320312 C 185.785156 435.324219 182.855469 435.324219 179.925781 435.328125 C 171.8125 435.332031 163.699219 435.339844 155.582031 435.339844 C 155.066406 435.339844 154.546875 435.339844 154.011719 435.339844 C 153.492188 435.339844 152.96875 435.339844 152.433594 435.339844 C 151.378906 435.339844 150.324219 435.339844 149.269531 435.339844 C 148.75 435.339844 148.226562 435.339844 147.6875 435.339844 C 139.214844 435.34375 130.746094 435.351562 122.273438 435.363281 C 113.574219 435.375 104.871094 435.378906 96.167969 435.382812 C 91.285156 435.382812 86.402344 435.382812 81.515625 435.394531 C 77.359375 435.398438 73.199219 435.402344 69.039062 435.398438 C 66.917969 435.398438 64.800781 435.398438 62.679688 435.402344 C 60.734375 435.410156 58.789062 435.410156 56.84375 435.402344 C 56.144531 435.402344 55.445312 435.402344 54.746094 435.410156 C 43.746094 435.46875 33.613281 431.984375 25.664062 424.203125 C 19.316406 417.640625 15.140625 408.542969 15.125 399.375 C 15.125 399.0625 15.125 398.746094 15.121094 398.425781 C 15.121094 397.375 15.121094 396.324219 15.121094 395.277344 C 15.117188 394.515625 15.117188 393.753906 15.113281 392.992188 C 15.109375 390.90625 15.109375 388.816406 15.105469 386.726562 C 15.105469 384.472656 15.101562 382.21875 15.097656 379.964844 C 15.085938 374.519531 15.082031 369.078125 15.078125 363.632812 C 15.074219 361.066406 15.074219 358.503906 15.070312 355.9375 C 15.0625 347.402344 15.054688 338.871094 15.050781 330.339844 C 15.050781 328.125 15.050781 325.914062 15.050781 323.699219 C 15.046875 323.148438 15.046875 322.597656 15.046875 322.03125 C 15.042969 313.128906 15.03125 304.222656 15.015625 295.316406 C 15 286.167969 14.992188 277.015625 14.992188 267.867188 C 14.988281 262.734375 14.984375 257.597656 14.972656 252.464844 C 14.960938 248.089844 14.957031 243.714844 14.964844 239.339844 C 14.964844 237.113281 14.964844 234.882812 14.957031 232.652344 C 14.945312 230.605469 14.949219 228.5625 14.953125 226.515625 C 14.957031 225.78125 14.953125 225.042969 14.949219 224.308594 C 14.898438 217.769531 15.726562 211.015625 18.910156 205.183594 C 19.15625 204.710938 19.15625 204.710938 19.410156 204.230469 C 20.898438 201.476562 22.667969 199.066406 24.785156 196.757812 C 25.109375 196.390625 25.433594 196.019531 25.769531 195.640625 C 31.484375 189.5 40.164062 185.292969 48.558594 184.628906 C 50.476562 184.574219 52.394531 184.566406 54.316406 184.574219 C 55.054688 184.574219 55.796875 184.570312 56.535156 184.566406 C 58.554688 184.5625 60.574219 184.5625 62.59375 184.566406 C 64.777344 184.570312 66.960938 184.5625 69.140625 184.558594 C 73.414062 184.550781 77.6875 184.550781 81.957031 184.550781 C 85.429688 184.554688 88.90625 184.554688 92.378906 184.550781 C 93.121094 184.550781 93.121094 184.550781 93.878906 184.550781 C 94.886719 184.546875 95.890625 184.546875 96.898438 184.546875 C 106.324219 184.539062 115.75 184.542969 125.179688 184.546875 C 133.792969 184.554688 142.40625 184.546875 151.019531 184.535156 C 159.875 184.523438 168.734375 184.519531 177.589844 184.523438 C 182.554688 184.523438 187.523438 184.523438 192.492188 184.515625 C 196.71875 184.507812 200.949219 184.507812 205.179688 184.515625 C 207.332031 184.519531 209.488281 184.519531 211.644531 184.515625 C 213.621094 184.507812 215.597656 184.507812 217.578125 184.519531 C 218.289062 184.519531 219 184.519531 219.710938 184.515625 C 230.78125 184.441406 239.867188 188.628906 247.992188 196.128906 C 256.074219 204.597656 258.195312 215.195312 258.183594 226.480469 C 258.1875 227.320312 258.195312 228.15625 258.199219 228.996094 C 258.214844 231.246094 258.21875 233.496094 258.21875 235.75 C 258.226562 238.109375 258.238281 240.46875 258.25 242.832031 C 258.269531 247.292969 258.285156 251.753906 258.296875 256.210938 C 258.308594 261.296875 258.328125 266.378906 258.351562 271.460938 C 258.394531 281.90625 258.429688 292.351562 258.457031 302.796875 C 258.972656 303.050781 259.484375 303.304688 260.011719 303.570312 C 260.703125 303.910156 261.390625 304.253906 262.078125 304.597656 C 262.582031 304.847656 262.582031 304.847656 263.097656 305.101562 C 276.554688 311.808594 288.566406 321.613281 297.800781 333.503906 C 298.015625 333.773438 298.230469 334.042969 298.449219 334.324219 C 302.679688 339.695312 306.324219 345.367188 309.796875 351.257812 C 310.023438 351.640625 310.25 352.023438 310.484375 352.417969 C 315.578125 361.105469 319.734375 370.398438 323.242188 379.832031 C 323.605469 380.960938 323.605469 380.960938 324.191406 381.488281 C 324.351562 381.0625 324.511719 380.640625 324.671875 380.203125 C 333.9375 355.523438 344.6875 331.089844 358.039062 308.320312 C 358.757812 307.082031 359.460938 305.835938 360.160156 304.585938 C 366.859375 292.636719 374.34375 281.007812 382.730469 270.167969 C 383.089844 269.691406 383.449219 269.214844 383.820312 268.726562 C 388.300781 262.824219 392.96875 257.0625 398.003906 251.625 C 398.953125 250.597656 399.871094 249.550781 400.78125 248.488281 C 402.265625 246.777344 403.847656 245.191406 405.472656 243.617188 C 406.28125 242.855469 406.28125 242.855469 406.71875 241.859375 C 407.039062 241.859375 407.355469 241.859375 407.679688 241.859375 C 407.792969 241.589844 407.90625 241.320312 408.019531 241.042969 C 409.859375 237.761719 413.324219 235.1875 416.164062 232.761719 C 417.355469 231.710938 418.515625 230.632812 419.671875 229.546875 C 422.769531 226.636719 425.949219 223.886719 429.273438 221.226562 C 429.847656 220.75 430.425781 220.273438 431.003906 219.796875 C 435.714844 215.898438 440.578125 212.261719 445.585938 208.753906 C 446.140625 208.363281 446.140625 208.363281 446.707031 207.964844 C 458.261719 199.898438 470.257812 192.226562 483.011719 186.203125 C 483.511719 185.960938 484.011719 185.722656 484.527344 185.476562 C 511.628906 172.507812 540.101562 162.914062 569.859375 158.371094 C 567.753906 158.230469 565.648438 158.09375 563.542969 157.960938 C 562.828125 157.917969 562.117188 157.871094 561.40625 157.824219 C 538.917969 156.324219 516.496094 158.921875 494.527344 163.648438 C 494 163.761719 493.476562 163.875 492.933594 163.992188 C 456.460938 171.976562 422.417969 190.265625 394.246094 214.511719 C 393.902344 214.804688 393.558594 215.097656 393.207031 215.402344 C 392.265625 216.214844 391.335938 217.039062 390.40625 217.871094 C 390.011719 218.21875 389.621094 218.566406 389.214844 218.925781 C 386.03125 221.792969 382.972656 224.773438 379.941406 227.796875 C 379.558594 228.175781 379.171875 228.558594 378.777344 228.953125 C 376.476562 231.257812 374.289062 233.625 372.175781 236.101562 C 371.710938 236.632812 371.25 237.164062 370.789062 237.695312 C 365.15625 244.203125 359.972656 250.859375 355.179688 258.015625 C 354.378906 259.195312 353.558594 260.359375 352.738281 261.523438 C 336.492188 284.667969 325.714844 311.582031 318.433594 338.78125 C 317.207031 337.558594 317.234375 336.847656 316.996094 335.144531 C 316.917969 334.59375 316.835938 334.042969 316.757812 333.472656 C 316.636719 332.582031 316.636719 332.582031 316.515625 331.675781 C 316.429688 331.070312 316.347656 330.460938 316.261719 329.835938 C 315.5625 324.675781 314.972656 319.507812 314.597656 314.3125 C 314.53125 313.457031 314.53125 313.457031 314.46875 312.582031 C 314.078125 306.871094 314.019531 301.171875 314.027344 295.449219 C 314.027344 294.722656 314.027344 294.722656 314.027344 293.980469 C 314.039062 286.164062 314.234375 278.425781 315.074219 270.648438 C 315.136719 270.089844 315.195312 269.535156 315.253906 268.960938 C 317.816406 245.808594 323.84375 223.125 333.789062 202.035156 C 334.003906 201.578125 334.21875 201.117188 334.441406 200.648438 C 338.515625 192.085938 343.246094 183.910156 348.664062 176.125 C 349.019531 175.605469 349.375 175.089844 349.746094 174.554688 C 358.515625 161.953125 369.070312 149.589844 380.8125 139.660156 C 381.269531 139.253906 381.726562 138.847656 382.199219 138.429688 C 412.675781 111.601562 451.4375 94.679688 505.054688 82.859375 C 505.660156 82.753906 506.265625 82.644531 506.886719 82.53125 C 519.035156 80.503906 531.136719 79.921875 543.421875 80.003906 C 544.507812 80.011719 545.597656 80.015625 546.683594 80.019531 C 555.773438 80.042969 564.828125 80.207031 573.898438 80.808594 C 574.226562 80.832031 574.550781 80.851562 574.886719 80.875 C 575.207031 80.894531 575.527344 80.917969 575.859375 80.9375 C 579.984375 81.203125 584.109375 81.3125 588.242188 81.417969 C 589.097656 81.441406 589.953125 81.460938 590.8125 81.488281 C 599.242188 81.726562 607.582031 81.417969 615.949219 80.3125 C 616.417969 80.25 616.417969 80.25 616.894531 80.1875 C 635.554688 77.691406 653.519531 71.660156 670.171875 62.890625 C 671.152344 62.382812 672.140625 61.894531 673.136719 61.410156 C 685.859375 55.089844 697.875 46.328125 708.523438 36.976562 C 709.050781 36.523438 709.050781 36.523438 709.589844 36.058594 C 710.519531 35.25 711.441406 34.4375 712.363281 33.621094 C 712.875 33.171875 712.875 33.171875 713.394531 32.710938 C 716.378906 30.058594 719.238281 27.300781 722.054688 24.472656 C 722.773438 23.75 723.492188 23.03125 724.214844 22.316406 C 726.761719 19.765625 729.21875 17.171875 731.554688 14.425781 C 731.714844 14.269531 731.871094 14.109375 732.035156 13.945312 Z M 53.097656 222.1875 C 53.097656 279.980469 53.097656 337.773438 53.097656 397.320312 C 108.199219 397.320312 163.300781 397.320312 220.070312 397.320312 C 220.070312 376.261719 220.070312 355.203125 220.070312 333.503906 C 218.878906 332.90625 218.140625 333 216.808594 333.046875 C 210.027344 333.214844 204.355469 333.273438 198.941406 328.664062 C 194.960938 324.789062 192.992188 320.316406 192.707031 314.765625 C 192.761719 309.53125 194.789062 304.679688 198.339844 300.824219 C 204.710938 295.574219 211.960938 295.796875 220.070312 295.121094 C 220.070312 271.050781 220.070312 246.984375 220.070312 222.1875 C 164.96875 222.1875 109.867188 222.1875 53.097656 222.1875 Z M 492.644531 466.023438 C 492.0625 466.042969 491.484375 466.0625 490.882812 466.082031 C 490.242188 466.101562 489.597656 466.125 488.953125 466.148438 C 488.273438 466.167969 487.597656 466.191406 486.917969 466.214844 C 485.070312 466.277344 483.226562 466.339844 481.382812 466.402344 C 480.222656 466.441406 479.066406 466.480469 477.910156 466.519531 C 473.859375 466.65625 469.808594 466.796875 465.761719 466.933594 C 462.007812 467.058594 458.257812 467.1875 454.503906 467.3125 C 451.269531 467.421875 448.035156 467.53125 444.800781 467.644531 C 442.875 467.707031 440.949219 467.773438 439.023438 467.839844 C 429.054688 468.171875 429.054688 468.171875 419.085938 468.574219 C 418.695312 468.589844 418.300781 468.609375 417.898438 468.625 C 409.921875 469 403.164062 472.207031 397.605469 477.929688 C 397.148438 478.371094 397.148438 478.371094 396.683594 478.820312 C 393.703125 481.90625 391.367188 486.222656 390.40625 490.40625 C 390.980469 490.398438 390.980469 490.398438 391.566406 490.390625 C 395.179688 490.339844 398.792969 490.304688 402.40625 490.28125 C 404.265625 490.269531 406.121094 490.25 407.980469 490.222656 C 409.777344 490.199219 411.570312 490.183594 413.367188 490.175781 C 414.046875 490.171875 414.730469 490.164062 415.414062 490.152344 C 419.347656 490.078125 422.402344 490.085938 425.433594 492.804688 C 428.078125 495.445312 428 499.390625 428.082031 502.894531 C 428.09375 503.347656 428.105469 503.800781 428.121094 504.269531 C 428.144531 505.230469 428.167969 506.1875 428.1875 507.144531 C 428.222656 508.601562 428.269531 510.058594 428.316406 511.515625 C 428.339844 512.449219 428.359375 513.382812 428.382812 514.320312 C 428.402344 514.964844 428.402344 514.964844 428.425781 515.625 C 428.476562 518.746094 428.121094 521.535156 426.046875 524.019531 C 425.765625 524.238281 425.484375 524.457031 425.195312 524.683594 C 424.910156 524.910156 424.628906 525.136719 424.339844 525.371094 C 419.929688 528.265625 410.851562 527.011719 405.644531 527.136719 C 401.03125 527.25 396.449219 527.457031 391.847656 527.832031 C 393.714844 531.988281 395.796875 535.175781 399.042969 538.386719 C 399.539062 538.898438 399.539062 538.898438 400.042969 539.417969 C 406.511719 545.683594 414.363281 547.019531 423.023438 547.023438 C 425.0625 546.988281 427.101562 546.914062 429.136719 546.835938 C 429.910156 546.808594 430.6875 546.785156 431.460938 546.757812 C 433.542969 546.6875 435.625 546.613281 437.707031 546.539062 C 439.453125 546.476562 441.199219 546.414062 442.949219 546.351562 C 447.070312 546.207031 451.195312 546.058594 455.320312 545.910156 C 459.554688 545.753906 463.792969 545.605469 468.03125 545.460938 C 471.6875 545.335938 475.339844 545.207031 478.996094 545.074219 C 481.171875 544.996094 483.347656 544.917969 485.523438 544.84375 C 487.570312 544.777344 489.617188 544.699219 491.660156 544.621094 C 492.40625 544.59375 493.152344 544.570312 493.898438 544.546875 C 499.9375 544.351562 506.011719 543.847656 511.441406 540.964844 C 511.921875 540.714844 511.921875 540.714844 512.414062 540.457031 C 519.144531 536.8125 523.503906 530.886719 526.207031 523.828125 C 527.632812 518.476562 527.738281 513.332031 527.554688 507.84375 C 527.515625 506.640625 527.484375 505.433594 527.457031 504.230469 C 527.351562 500.277344 527.132812 496.351562 526.71875 492.417969 C 526.683594 492.070312 526.648438 491.722656 526.609375 491.367188 C 525.757812 483.980469 521.746094 477.40625 516.117188 472.652344 C 508.859375 467.238281 501.527344 465.722656 492.644531 466.023438 Z M 492.644531 466.023438 " fill-opacity="1" fill-rule="nonzero"/></svg>